<?xml version="1.0" standalone="no"?>
<!DOCTYPE svg PUBLIC "-//W3C//DTD SVG 20010904//EN"
 "http://www.w3.org/TR/2001/REC-SVG-20010904/DTD/svg10.dtd">
<svg version="1.0" xmlns="http://www.w3.org/2000/svg"
 width="260.000000pt" height="260.000000pt" viewBox="0 0 260.000000 260.000000"
 preserveAspectRatio="xMidYMid meet">
<metadata>
Created by potrace 1.14, written by Peter Selinger 2001-2017
</metadata>
<g transform="translate(0.000000,260.000000) scale(0.100000,-0.100000)"
fill="#000000" stroke="none">
<path d="M1208 2465 c-2 -2 -25 -5 -51 -6 -26 -2 -47 -7 -47 -11 0 -5 -4 -7
-8 -4 -5 3 -32 -1 -61 -9 -28 -7 -54 -13 -56 -13 -11 -1 -102 -35 -153 -58
-29 -13 -55 -24 -57 -24 -10 0 -112 -66 -170 -108 -69 -52 -212 -196 -221
-224 -3 -10 -10 -16 -15 -13 -5 4 -9 1 -9 -5 0 -6 -17 -37 -38 -68 -36 -55
-92 -164 -96 -186 -1 -6 -4 -15 -7 -21 -3 -5 -14 -37 -24 -70 -10 -33 -20 -67
-23 -75 -3 -8 -6 -24 -7 -35 -1 -11 -5 -28 -9 -37 -9 -19 -13 -275 -5 -350 2
-27 8 -48 12 -48 5 0 6 -4 3 -8 -5 -8 34 -150 51 -192 4 -8 7 -19 8 -25 1 -5
10 -26 20 -45 11 -19 18 -41 17 -47 -2 -7 1 -13 6 -13 5 0 15 -13 22 -30 7
-16 17 -30 23 -30 6 0 8 -3 4 -6 -10 -10 88 -137 167 -216 71 -72 194 -168
214 -168 6 0 12 -4 14 -9 9 -25 259 -128 280 -115 7 4 8 3 4 -4 -5 -8 4 -12
29 -12 20 0 34 -4 31 -9 -3 -5 8 -7 24 -6 17 1 30 0 30 -4 0 -13 239 -20 320
-9 30 4 71 9 90 12 46 6 201 55 218 68 6 6 12 8 12 5 0 -14 168 80 243 136 87
64 200 175 245 242 15 22 30 42 35 43 4 2 5 8 1 13 -3 5 0 9 5 9 6 0 11 7 11
15 0 8 4 15 8 15 8 0 35 46 36 62 1 4 7 13 14 20 6 6 12 18 12 26 0 8 6 26 14
40 8 15 24 59 36 97 12 39 24 77 27 85 3 8 7 24 8 35 1 11 6 45 11 75 14 100
8 360 -9 360 -5 0 -6 4 -3 8 3 5 -3 35 -13 68 -10 32 -18 61 -19 64 -2 13 -16
50 -40 110 -50 125 -135 250 -242 360 -79 80 -232 195 -275 206 -14 3 -25 10
-25 15 0 5 -5 9 -10 9 -6 0 -29 9 -53 19 -105 47 -163 64 -297 87 -41 7 -256
14 -262 9z m22 -86 c-7 -11 -14 -19 -16 -16 -7 7 7 37 17 37 6 0 5 -9 -1 -21z
m128 10 c-2 -6 -15 -25 -30 -42 -27 -31 -22 -52 9 -40 7 3 13 -1 13 -9 0 -13
-21 -15 -82 -9 -14 2 -8 16 19 46 26 27 45 71 21 47 -11 -11 -38 -5 -38 9 0 5
20 9 45 9 28 0 44 -4 43 -11z m100 -14 c12 -10 11 -15 -1 -26 -12 -12 -12 -15
1 -28 13 -13 12 -17 -7 -32 -21 -17 -60 -15 -73 4 -3 6 -2 21 3 34 6 16 5 23
-4 23 -9 0 -8 3 1 9 8 4 13 11 13 15 -3 22 1 26 27 20 15 -4 33 -12 40 -19z
m-301 9 c41 -11 47 -81 9 -106 -21 -15 -55 -8 -70 14 -21 30 -20 54 4 78 22
22 25 23 57 14z m367 -14 c17 5 47 -10 41 -20 -4 -7 -11 -8 -18 -1 -8 6 -16 4
-24 -4 -9 -10 -7 -14 10 -19 20 -5 17 -21 -4 -21 -5 0 -9 -3 -9 -7 0 -5 0 -12
0 -18 0 -5 3 -9 8 -7 4 1 7 -2 7 -8 0 -5 -4 -9 -10 -7 -5 2 -17 4 -26 5 -13 1
-17 10 -16 43 1 23 5 40 10 37 4 -2 7 8 7 24 0 19 3 24 9 15 4 -8 11 -13 15
-12z m-499 -112 c5 -13 3 -18 -8 -18 -9 0 -21 19 -31 47 -19 54 -20 67 -6 58
6 -3 10 0 11 7 0 7 6 -7 13 -32 7 -25 16 -53 21 -62z m592 71 c-5 -20 4 -18
37 10 11 9 16 10 12 4 -4 -7 -2 -13 4 -13 7 0 6 -5 -2 -14 -7 -8 -16 -12 -19
-10 -4 2 -9 -5 -12 -16 -3 -11 -1 -23 4 -26 16 -9 11 -44 -6 -38 -8 4 -12 10
-9 15 3 5 0 9 -5 9 -6 0 -12 10 -12 23 -2 22 -2 22 -6 0 -2 -12 -11 -24 -20
-27 -13 -5 -14 0 -8 30 10 56 24 86 36 78 6 -3 9 -15 6 -25z m-690 -11 c-2 -7
-9 -12 -15 -11 -14 3 -25 -32 -17 -57 3 -11 14 -20 24 -20 23 0 31 9 24 27 -4
10 -8 11 -13 3 -5 -8 -9 -7 -13 4 -8 20 32 34 44 15 25 -40 2 -68 -54 -69 -47
0 -65 75 -24 103 27 19 50 22 44 5z m807 -13 c3 -8 2 -15 -3 -15 -5 0 -12 -10
-16 -22 -4 -13 -8 -25 -10 -28 -1 -3 -5 -13 -9 -22 -10 -22 -26 -14 -21 10 5
26 38 92 46 92 4 0 9 -7 13 -15z m81 -35 c20 -22 14 -26 -16 -10 -16 9 -19 7
-19 -9 0 -11 4 -22 9 -26 16 -9 8 -45 -11 -51 -23 -7 -58 13 -58 33 0 14 2 14
20 -2 15 -14 20 -15 20 -4 0 11 2 11 10 -1 5 -8 10 -10 10 -4 0 6 -7 17 -15
24 -18 15 -20 56 -2 63 23 10 34 7 52 -13z m-953 -60 c4 0 8 -7 8 -16 0 -10
-6 -13 -19 -9 -25 8 -52 -4 -49 -23 2 -8 -3 -17 -9 -19 -8 -3 -13 4 -13 16 0
12 -6 21 -12 22 -10 0 -10 2 -1 6 8 3 10 11 5 21 -9 19 -9 29 2 54 7 15 13 13
43 -17 20 -19 40 -35 45 -35z m1033 17 c19 -13 32 -27 28 -30 -3 -4 -12 -2
-20 4 -10 9 -13 8 -13 -5 0 -9 -4 -16 -9 -16 -5 0 -18 -14 -29 -31 -15 -23
-21 -27 -25 -16 -3 9 3 27 15 42 14 17 18 34 14 50 -8 31 -4 31 39 2z m-525
-2 c24 -2 118 -13 150 -18 8 -1 20 -5 25 -8 6 -4 24 -9 40 -13 80 -20 269
-128 328 -188 15 -15 32 -28 37 -28 6 0 10 -4 10 -8 0 -5 25 -35 55 -68 30
-32 55 -64 55 -71 0 -6 6 -18 13 -25 32 -33 112 -222 122 -288 3 -14 8 -45 13
-70 13 -71 6 -258 -13 -330 -9 -36 -18 -74 -21 -85 -2 -10 -10 -33 -18 -50
-19 -40 -39 -88 -40 -97 -1 -4 -7 -13 -13 -19 -7 -7 -13 -19 -13 -26 0 -7 -4
-13 -9 -13 -5 0 -14 -13 -21 -30 -7 -16 -16 -30 -21 -30 -5 0 -9 -7 -9 -16 0
-8 -4 -12 -10 -9 -5 3 -10 1 -10 -5 0 -17 -131 -142 -192 -182 -64 -43 -150
-90 -155 -85 -2 2 -4 55 -6 118 -2 105 -3 114 -23 119 -16 4 -20 12 -20 43 1
33 -1 37 -24 38 -14 1 -28 1 -32 0 -4 0 -28 -2 -53 -3 -25 0 -45 -6 -45 -11 0
-6 -3 -8 -6 -5 -7 7 -67 -8 -116 -29 -34 -14 -40 -14 -100 7 -79 27 -89 30
-165 39 -84 9 -98 3 -98 -45 -1 -34 -4 -39 -24 -38 -20 1 -22 -3 -20 -37 2
-21 1 -41 -2 -43 -3 -3 -3 -27 0 -53 3 -27 5 -60 3 -75 -3 -24 -6 -26 -21 -18
-10 5 -21 6 -25 3 -3 -3 -6 -1 -6 5 0 7 -5 12 -10 12 -48 0 -299 220 -337 295
-9 16 -19 32 -23 35 -10 8 -86 171 -95 205 -12 45 -12 45 -15 48 -7 9 -23 127
-24 184 -1 29 -5 53 -9 53 -5 0 -5 5 -2 11 4 5 9 34 11 62 2 29 7 68 10 87 4
19 8 42 9 50 7 62 85 231 144 315 51 73 177 196 244 238 31 20 59 37 62 37 2
0 27 14 55 30 28 17 48 25 44 18 -4 -7 1 -6 12 3 10 9 33 19 49 23 38 8 60 14
60 16 0 6 110 21 177 25 33 2 62 6 65 9 3 3 11 2 17 -1 6 -4 22 -8 36 -8z
m-632 -41 c18 -19 15 -61 -7 -83 -11 -11 -22 -17 -25 -13 -3 3 -6 -1 -6 -9 0
-15 -36 22 -59 61 -12 22 -11 26 14 46 28 22 59 22 83 -2z m1258 -28 c26 -26
-7 -105 -41 -100 -54 8 -72 34 -56 77 17 43 65 54 97 23z m-1366 -55 c14 -21
28 -37 31 -35 3 2 6 -3 6 -11 0 -23 -25 -18 -38 8 -7 12 -21 30 -31 39 -11 9
-17 22 -13 27 11 18 20 13 45 -28z m-43 -44 c43 -37 52 -58 23 -50 -11 3 -20
9 -20 13 0 13 -29 20 -36 8 -4 -7 -3 -8 4 -4 7 4 12 1 12 -8 0 -9 4 -16 9 -16
5 0 8 -8 6 -17 -1 -10 -9 -16 -16 -14 -8 2 -25 6 -39 8 l-25 5 23 -17 c12 -9
22 -20 22 -26 0 -20 -28 -7 -58 27 -25 28 -30 39 -21 50 9 11 16 11 40 -1 29
-15 63 -21 44 -7 -15 10 -33 55 -28 70 7 19 18 15 60 -21z m1489 16 c-2 -10
-8 -34 -11 -53 l-7 -35 25 28 c29 30 37 33 37 14 0 -21 -69 -82 -79 -71 -6 5
-6 27 -2 51 8 39 7 41 -10 32 -11 -5 -19 -14 -19 -19 0 -6 -7 -10 -15 -10 -23
0 -18 12 17 47 37 36 73 44 64 16z m-1601 -133 c8 0 18 -8 23 -17 8 -16 8 -26
4 -59 -2 -10 -44 -34 -61 -34 -19 0 -51 39 -51 62 0 28 33 64 49 53 6 -3 11 0
12 7 0 10 2 10 6 1 2 -7 11 -13 18 -13z m1735 -20 c0 -4 -9 -17 -20 -30 -12
-14 -18 -31 -14 -42 4 -15 0 -18 -25 -18 -21 0 -31 5 -31 16 0 8 3 13 8 11 4
-3 15 6 25 19 21 28 17 30 -23 9 -25 -13 -30 -13 -30 -2 0 8 18 22 40 33 22
10 40 23 40 28 0 5 7 3 15 -4 8 -7 15 -16 15 -20z m44 -83 c-6 -17 -83 -59
-94 -52 -15 9 -12 28 3 23 6 -3 21 4 32 15 11 11 15 17 9 14 -7 -4 -14 0 -17
7 -4 10 2 16 16 18 29 5 58 -9 51 -25z m-1847 -18 c49 -27 48 -26 35 -42 -6
-7 -27 -13 -46 -12 -22 1 -37 -3 -40 -11 -6 -17 -32 -18 -41 -3 -10 15 24 36
51 33 33 -3 31 24 -1 32 -14 3 -22 10 -19 15 8 13 20 11 61 -12z m1870 -44
c-7 -7 -15 -11 -19 -8 -5 2 -8 -1 -8 -6 0 -6 -9 -11 -19 -11 -11 0 -23 -4 -26
-10 -10 -16 -25 -12 -25 7 0 9 3 14 6 11 3 -4 21 4 40 17 37 25 74 25 51 0z
m-1867 -57 c0 -11 -22 -10 -39 1 -7 5 -11 14 -7 20 7 11 46 -7 46 -21z m1910
17 c0 -2 -21 -12 -46 -24 -36 -17 -44 -26 -39 -40 10 -32 -10 -32 -22 -1 -11
30 -1 49 29 54 7 1 22 7 32 13 17 9 46 8 46 -2z m-1992 -110 c12 -1 19 2 16 7
-7 11 17 10 34 -1 10 -6 5 -12 -20 -20 -30 -11 -31 -13 -15 -25 9 -7 17 -16
17 -19 0 -9 -64 4 -68 14 -2 4 -12 5 -22 2 -14 -4 -20 0 -20 12 0 12 6 16 20
12 23 -6 26 6 7 25 -8 7 -12 19 -9 27 3 10 9 8 22 -9 10 -13 27 -24 38 -25z
m2007 9 c-8 -9 -22 -13 -30 -10 -8 3 -15 1 -15 -4 0 -6 -7 -10 -15 -10 -9 0
-15 -7 -13 -16 2 -10 -4 -19 -12 -22 -8 -3 -12 -1 -8 3 4 5 3 14 -3 21 -7 9
-7 18 0 31 6 10 11 15 11 11 0 -4 10 -3 23 2 12 5 35 9 50 9 26 1 27 0 12 -15z
m35 -79 c0 -8 -3 -14 -7 -14 -5 1 -28 -2 -53 -6 -53 -10 -53 -10 -56 8 -1 8 8
12 27 11 16 -1 31 1 33 5 9 14 56 11 56 -4z m-2117 -25 c-6 -23 15 -28 23 -5
4 8 14 15 23 15 13 0 13 -2 2 -9 -7 -5 -10 -14 -7 -20 8 -12 37 -15 35 -3 -3
18 2 32 12 32 13 0 8 -52 -6 -62 -14 -11 -55 -10 -55 1 0 6 -9 8 -20 6 -11 -2
-22 1 -26 6 -8 13 6 70 16 64 4 -3 6 -14 3 -25z m2108 -49 l-21 -19 25 -6 c14
-4 25 -11 25 -16 0 -12 -37 -13 -44 -1 -3 5 -19 7 -35 6 -43 -4 -62 12 -25 21
16 4 31 10 34 13 3 4 16 14 30 23 31 20 40 4 11 -21z m-2036 -76 c0 -40 0 -40
-37 -40 -21 0 -38 3 -38 7 0 4 -9 5 -20 3 -22 -4 -23 -2 -14 43 6 30 8 30 58
29 l51 -2 0 -40z m2073 -73 c2 -8 -10 -12 -41 -12 -27 0 -47 -5 -50 -13 -7
-19 15 -32 54 -31 25 1 36 -2 36 -12 0 -10 -13 -14 -41 -14 -48 0 -61 7 -70
37 -12 38 11 59 62 58 26 0 47 -6 50 -13z m-2158 -13 c0 -4 -7 -6 -15 -3 -8 4
-15 10 -15 15 0 4 7 6 15 3 8 -4 15 -10 15 -15z m86 -55 c14 -54 -45 -103 -82
-67 -8 8 -14 11 -14 6 0 -4 -5 -1 -10 7 -14 22 -12 67 3 67 9 0 13 -9 11 -23
-3 -30 18 -46 48 -39 26 7 33 41 11 49 -7 3 -13 1 -13 -4 0 -6 -4 -10 -10 -10
-5 0 -10 9 -10 20 0 16 7 20 30 20 23 0 31 -5 36 -26z m2065 -59 c15 -10 0
-26 -45 -46 -24 -11 -34 -19 -23 -20 9 -1 22 -3 27 -4 6 -1 15 -3 20 -4 6 0
10 -6 10 -11 0 -15 -83 -10 -105 6 -15 11 -15 13 7 25 13 7 26 12 31 11 4 -1
7 3 7 9 0 5 5 7 10 4 6 -3 10 0 10 8 0 9 -10 14 -27 13 -14 -1 -28 5 -31 12
-3 11 7 13 47 8 29 -3 56 -8 62 -11z m-2048 -94 c-1 -39 -2 -39 -33 -43 -14
-2 -30 -7 -36 -10 -6 -4 -20 -1 -30 7 -15 11 -16 15 -4 15 8 1 24 4 35 6 11 3
25 6 32 6 17 2 23 36 7 42 -8 3 -32 3 -54 0 -26 -4 -40 -2 -40 5 0 6 7 12 15
12 28 3 33 4 40 11 4 4 21 1 39 -6 26 -11 31 -18 29 -45z m1992 -35 c15 -3 30
-7 32 -10 7 -7 -6 -26 -18 -26 -6 0 -7 5 -4 11 4 6 1 9 -6 8 -8 -2 -31 0 -52
5 -32 6 -36 10 -27 21 9 10 17 12 30 5 9 -5 29 -11 45 -14z m-1966 -64 c1 -13
-33 -29 -83 -39 -45 -9 -28 18 20 32 21 6 39 17 40 25 2 31 6 34 14 15 5 -11
9 -26 9 -33z m1886 8 c-7 -11 8 -14 19 -3 10 11 36 12 36 2 0 -5 5 -9 11 -9 5
0 8 4 5 8 -2 4 4 8 15 8 10 0 19 -6 19 -13 0 -13 -16 -16 -75 -14 -17 0 -23
-2 -15 -6 8 -3 17 -9 20 -13 3 -3 15 -13 27 -21 13 -9 19 -20 14 -27 -5 -9
-21 -2 -54 24 -39 31 -45 39 -36 55 5 11 12 19 15 19 3 0 2 -4 -1 -10z m-1856
-92 c9 -26 -5 -62 -26 -64 -4 0 -16 -4 -25 -8 -9 -4 -25 -6 -35 -4 -13 3 -5
11 29 28 68 34 43 70 -27 38 -14 -6 -28 -8 -31 -5 -9 9 16 38 26 32 5 -3 11
-1 14 4 3 5 19 8 36 7 23 0 32 -7 39 -28z m1866 -15 c11 -7 27 -13 36 -13 20
0 19 -17 -2 -48 -18 -25 -33 -18 -19 9 13 23 -4 34 -23 15 -17 -17 -28 -11
-20 10 8 20 -14 17 -26 -3 -15 -28 -25 -7 -11 26 12 31 24 32 65 4z m-61 -73
c-6 11 -2 10 13 -2 11 -10 24 -18 30 -18 19 0 24 -32 8 -56 -9 -13 -19 -24
-24 -24 -20 0 -41 13 -41 25 0 21 -37 11 -59 -17 -26 -33 -26 -38 -1 -38 11 0
20 4 20 9 0 4 11 6 24 4 31 -6 38 -34 16 -63 -15 -19 -18 -20 -23 -6 -4 9 -2
16 3 16 6 0 10 6 10 14 0 12 -6 12 -35 3 -31 -9 -37 -8 -49 9 -8 10 -10 21 -5
22 5 2 7 7 4 12 -3 4 6 15 20 24 14 9 25 23 25 31 0 8 7 16 15 16 8 1 20 3 25
4 6 1 13 3 17 4 4 0 -1 7 -12 14 -10 8 -15 19 -11 26 6 9 12 7 23 -6 8 -10 11
-11 7 -3z m-1736 -46 c38 -39 13 -102 -40 -99 -38 3 -60 23 -56 54 6 53 62 79
96 45z m702 -75 c25 -7 48 -17 52 -23 4 -6 8 -8 8 -4 0 4 15 1 33 -6 38 -16
39 -16 140 19 44 14 98 27 120 28 l42 2 3 -202 c2 -159 0 -203 -10 -204 -7 -1
-26 -2 -43 -4 -16 -1 -54 -4 -82 -5 -29 -2 -53 -7 -53 -11 0 -4 -9 -6 -20 -4
-11 2 -20 -1 -20 -6 0 -15 -72 -8 -92 9 -14 11 -18 12 -18 2 0 -9 -4 -9 -13
-2 -10 9 -77 18 -159 21 -17 1 -18 18 -18 207 l0 205 43 -5 c23 -3 62 -11 87
-17z m-630 -25 c0 -8 7 -17 15 -20 8 -4 15 -12 15 -19 0 -7 7 -15 15 -19 10
-4 13 -14 9 -36 -7 -34 0 -38 24 -14 12 12 17 13 20 4 3 -7 -14 -31 -36 -53
l-41 -41 -20 25 c-27 32 -26 53 4 67 15 7 25 20 25 32 0 18 -6 20 -52 20 -38
0 -49 -3 -38 -10 13 -8 13 -10 1 -10 -11 0 -9 -4 5 -15 15 -12 16 -14 3 -15
-8 0 -26 12 -39 27 -22 25 -22 27 -4 40 14 10 19 10 26 0 6 -9 10 -9 17 2 5 7
13 11 19 7 17 -10 23 11 7 24 -8 7 -12 16 -10 21 8 12 35 -1 35 -17z m1548
-26 c7 -7 12 -9 12 -5 0 3 12 -6 26 -20 19 -19 23 -28 13 -34 -8 -5 -26 6 -51
29 -21 20 -38 37 -38 39 0 8 27 2 38 -9z m-1076 -20 c2 -7 4 -88 3 -180 -1
-180 1 -187 50 -168 14 5 25 6 25 2 0 -4 25 -8 56 -9 31 -1 61 -7 68 -12 7 -6
15 -9 17 -6 3 2 23 -2 44 -9 30 -11 45 -11 60 -3 23 12 20 12 98 27 31 6 61 9
65 6 4 -2 14 -1 22 4 7 5 21 4 31 -3 38 -24 45 1 44 178 0 156 4 199 21 183 5
-6 9 -262 5 -385 -1 -31 -2 -31 -33 -22 -41 11 -214 4 -252 -10 -22 -9 -38 -9
-65 1 -21 7 -88 12 -158 13 -68 0 -123 2 -124 5 -1 7 -1 338 0 373 1 28 16 37
23 15z m1018 -27 c0 -17 63 -56 68 -43 2 7 8 9 14 6 5 -4 -2 -19 -18 -35 -27
-28 -48 -31 -38 -5 3 7 -9 25 -26 40 -17 14 -28 30 -25 36 8 13 25 13 25 1z
m-50 -59 c0 -5 13 -22 29 -38 l29 -28 -21 -22 c-12 -12 -27 -20 -34 -17 -11 4
-10 8 3 18 10 7 14 17 10 24 -6 9 -11 9 -22 0 -19 -16 -30 -3 -14 16 17 20 4
32 -19 18 -26 -16 -35 -4 -13 18 18 18 52 25 52 11z m-1328 -55 c-18 -18 -29
-36 -26 -40 4 -4 0 -7 -9 -7 -20 0 -21 4 -5 33 19 37 52 67 62 57 6 -6 -2 -22
-22 -43z m64 -4 c-4 -10 -7 -20 -6 -22 1 -2 -4 -8 -12 -12 -10 -7 -9 -9 5 -9
26 0 21 -13 -12 -33 -45 -26 -52 2 -16 58 30 46 56 58 41 18z m1174 -18 c0
-19 38 -48 55 -42 24 10 18 -10 -11 -32 -32 -26 -63 -29 -44 -6 11 13 8 22
-13 52 -14 20 -24 40 -21 44 7 12 34 -1 34 -16z m-1126 -25 c-3 -17 -1 -30 5
-30 6 0 11 7 11 15 0 8 7 15 15 15 20 0 19 -4 -10 -49 -29 -47 -40 -55 -53
-38 -11 14 -12 47 -1 47 5 0 4 12 -1 26 -9 21 -7 29 7 39 24 18 32 10 27 -25z
m1090 -61 c16 -27 10 -45 -9 -31 -17 12 -55 89 -48 96 7 7 29 -17 57 -65z"/>
<path d="M1410 2366 c0 -8 5 -18 10 -21 6 -3 10 1 10 9 0 8 -4 18 -10 21 -5 3
-10 -1 -10 -9z"/>
<path d="M1400 2323 c0 -5 4 -15 10 -23 11 -18 25 -7 17 15 -6 15 -27 21 -27
8z"/>
<path d="M1123 2363 c-19 -7 -16 -60 3 -67 23 -9 44 11 42 39 -2 24 -22 35
-45 28z"/>
<path d="M790 2204 c0 -14 3 -14 15 -4 8 7 15 14 15 16 0 2 -7 4 -15 4 -8 0
-15 -7 -15 -16z"/>
<path d="M1273 2167 c-3 -5 4 -11 14 -13 16 -4 19 -13 17 -44 -1 -24 3 -44 12
-51 12 -9 14 -6 15 22 1 19 1 40 0 47 -1 8 7 16 18 19 11 3 18 10 15 17 -5 13
-83 16 -91 3z"/>
<path d="M1167 2156 c-2 -5 1 -33 7 -62 8 -45 11 -50 23 -38 8 7 11 18 8 24
-3 5 -1 10 4 10 6 0 11 -4 11 -10 0 -5 6 -10 14 -10 8 0 16 -5 18 -12 3 -9 6
-9 12 0 3 6 -2 20 -14 32 -11 11 -15 20 -9 20 6 0 9 12 7 28 -3 24 -7 27 -40
27 -21 1 -39 -3 -41 -9z m48 -36 c-6 -9 -9 -9 -16 1 -10 17 0 34 13 21 6 -6 7
-16 3 -22z"/>
<path d="M1442 2145 c-7 -14 -12 -45 -11 -68 0 -23 3 -36 6 -29 2 6 9 10 14 6
5 -3 9 4 9 14 0 15 5 19 20 15 16 -4 19 -2 14 11 -3 9 -13 16 -21 16 -12 0
-13 3 -3 14 6 8 18 12 26 9 8 -3 14 0 14 6 0 11 -5 13 -32 15 -7 1 -16 5 -19
9 -3 4 -11 -4 -17 -18z"/>
<path d="M1056 2134 c-9 -8 -17 -20 -17 -25 -1 -5 -2 -15 -3 -21 -3 -19 23
-56 42 -61 29 -6 60 14 65 42 12 60 -48 105 -87 65z m59 -56 c-6 -27 -9 -30
-28 -23 -20 8 -29 45 -15 62 15 19 48 -11 43 -39z"/>
<path d="M1527 2086 c-19 -25 -36 -44 -38 -43 -3 1 -1 -2 4 -8 5 -6 14 -5 27
3 24 15 46 7 53 -20 11 -39 25 -7 23 50 -2 74 -22 80 -69 18z m35 -18 c-7 -7
-12 -8 -12 -2 0 6 3 14 7 17 3 4 9 5 12 2 2 -3 -1 -11 -7 -17z"/>
<path d="M940 2093 c-18 -12 -18 -16 -4 -51 9 -20 22 -44 30 -52 12 -12 14
-11 14 8 0 13 9 32 19 44 39 41 -12 84 -59 51z m41 -28 c1 -17 -18 -17 -25 0
-4 11 -1 15 10 13 8 -2 15 -7 15 -13z"/>
<path d="M1635 2067 c-15 -18 -17 -54 -5 -77 16 -29 75 -28 92 3 18 33 19 50
1 69 -18 20 -73 23 -88 5z m64 -16 c18 -11 6 -47 -19 -54 -10 -3 -21 -2 -24 1
-10 9 -6 38 6 50 14 14 19 15 37 3z"/>
<path d="M857 2050 c-40 -32 -24 -69 26 -64 23 3 28 1 23 -12 -3 -9 -6 -17 -6
-20 0 -2 -7 -1 -16 3 -12 4 -15 2 -12 -8 6 -18 34 -13 56 9 25 25 6 60 -30 55
-32 -4 -47 14 -19 25 13 4 17 12 12 20 -6 10 -14 8 -34 -8z"/>
<path d="M1768 2011 c-10 -10 -18 -23 -18 -29 0 -7 -4 -12 -9 -12 -5 0 -12 -7
-15 -17 -7 -16 23 -53 44 -53 14 0 8 24 -8 30 -9 4 -6 15 10 40 36 56 34 80
-4 41z"/>
<path d="M1195 1999 c-54 -9 -159 -42 -203 -65 -15 -7 -33 -14 -40 -14 -7 0
-10 -4 -7 -10 3 -5 1 -10 -5 -10 -5 0 -25 -10 -44 -22 -30 -19 -34 -27 -34
-67 -1 -44 -10 -99 -19 -113 -2 -4 -24 4 -49 18 -40 22 -46 23 -60 9 -13 -13
-13 -15 -1 -15 8 0 17 -7 21 -15 3 -8 12 -15 21 -15 8 0 15 -5 15 -10 0 -6 3
-9 8 -8 21 4 39 -15 34 -38 -2 -13 -8 -24 -13 -24 -11 0 -63 23 -69 31 -12 14
-63 20 -71 7 -14 -21 -12 -23 56 -48 35 -13 66 -29 69 -36 2 -6 -3 -34 -12
-62 -14 -40 -20 -49 -32 -42 -8 5 -17 7 -21 4 -4 -2 -10 0 -14 6 -3 5 -31 10
-61 10 -46 0 -54 -3 -54 -19 0 -15 8 -19 41 -19 48 -1 99 -19 99 -36 0 -6 -8
-23 -17 -36 -10 -14 -16 -25 -13 -25 6 0 -93 -150 -102 -153 -5 -2 -8 -18 -8
-35 0 -24 3 -28 10 -17 5 8 10 11 10 6 0 -6 14 10 32 35 18 24 37 47 43 51 5
4 6 8 1 8 -4 0 2 15 16 33 13 17 32 48 43 69 22 42 39 40 57 -8 6 -19 15 -34
19 -34 8 0 19 -65 25 -150 3 -36 7 -71 9 -77 3 -7 -1 -13 -7 -13 -6 0 -8 -3
-5 -6 11 -12 -13 -44 -33 -44 -10 0 -21 -4 -24 -9 -3 -4 -32 -14 -65 -20 -46
-9 -59 -15 -54 -26 3 -8 9 -15 14 -15 5 0 9 -6 9 -12 0 -16 105 -135 131 -148
14 -8 28 -5 58 14 21 14 42 22 45 19 3 -4 6 -1 6 5 0 7 4 12 9 12 5 0 22 5 38
12 15 6 30 12 33 13 32 10 99 28 112 30 10 2 23 7 30 11 7 5 8 3 3 -5 -6 -10
-3 -11 11 -3 11 5 62 10 114 11 52 1 97 4 99 7 3 3 7 17 8 32 2 15 8 41 13 57
12 42 24 107 23 128 0 9 4 17 9 17 6 0 3 11 -6 25 -19 30 -21 54 -3 61 8 3 14
11 14 19 0 13 -3 13 -16 1 -17 -15 -91 -18 -91 -3 0 4 -4 6 -9 2 -5 -3 -12 -2
-15 3 -2 4 -18 9 -35 10 -22 2 -31 -3 -36 -18 -11 -36 -83 -16 -86 23 0 7 -2
29 -3 50 -1 25 5 49 19 70 23 37 31 77 15 77 -6 0 -8 5 -5 10 3 6 0 10 -8 10
-15 0 -27 19 -33 53 -5 25 31 58 58 53 13 -3 26 -5 30 -5 3 -1 14 -21 23 -46
18 -46 24 -49 75 -28 14 6 34 9 45 7 34 -7 180 -5 200 2 17 7 55 39 55 48 0
10 89 96 127 123 23 17 39 33 36 37 -3 3 -1 6 5 6 6 0 16 9 22 20 8 16 4 25
-27 57 -75 75 -235 173 -285 173 -9 0 -20 5 -23 10 -4 6 -12 10 -18 8 -7 -1
-26 2 -44 6 -46 11 -180 13 -238 5z m-182 -306 c-9 -7 -41 -13 -71 -13 l-54 0
7 48 c14 103 11 101 76 36 52 -52 56 -60 42 -71z m74 -122 c27 -87 30 -231 4
-239 -8 -3 -11 0 -7 7 4 6 2 11 -3 11 -6 0 -11 5 -11 10 0 6 -6 18 -12 27 -30
37 -146 151 -170 167 -19 13 -25 23 -21 39 2 12 5 28 5 34 1 9 20 12 60 12 33
-1 61 1 64 3 2 3 19 5 36 4 31 -1 33 -4 55 -75z m-205 -65 c10 10 147 -147
172 -197 27 -55 25 -69 -18 -134 -25 -37 -107 -125 -116 -125 -4 0 -7 23 -6
50 1 28 -1 50 -4 50 -3 0 -5 12 -4 28 2 60 -44 180 -88 224 -11 11 -16 23 -11
27 6 3 13 19 17 36 4 16 13 33 19 37 8 5 7 8 -3 8 -13 0 -13 1 0 10 10 7 18 5
26 -5 6 -8 13 -12 16 -9z"/>
<path d="M1822 1934 c-18 -19 -32 -42 -30 -51 2 -13 12 -8 43 24 22 22 41 46
43 52 5 22 -24 10 -56 -25z"/>
<path d="M717 1946 c-11 -9 -13 -16 -6 -23 5 -5 12 -22 15 -37 4 -26 25 -56
38 -56 3 0 6 11 6 25 0 24 4 27 39 29 31 2 19 23 -27 48 -39 21 -51 24 -65 14z
m42 -32 c4 3 8 -1 8 -9 0 -8 -4 -15 -9 -15 -4 0 -8 2 -8 4 0 2 -2 10 -3 18 -2
7 -2 10 0 5 3 -4 8 -5 12 -3z"/>
<path d="M1890 1925 c0 -17 -18 -52 -38 -73 -23 -25 -1 -33 32 -12 19 11 43
20 55 20 23 0 28 14 9 26 -6 4 -14 2 -16 -4 -2 -6 -10 -8 -18 -5 -7 3 -11 10
-7 17 13 19 12 34 -3 40 -8 3 -14 -1 -14 -9z"/>
<path d="M655 1890 c-4 -7 -3 -15 2 -19 10 -6 33 -45 33 -56 0 -3 -9 -1 -21 5
-32 18 -59 20 -59 6 0 -12 71 -46 97 -46 31 0 21 41 -25 99 -14 17 -21 20 -27
11z"/>
<path d="M1953 1825 c-17 -7 -34 -11 -37 -8 -3 4 -6 1 -6 -5 0 -7 -3 -11 -7
-9 -5 1 -9 -2 -11 -8 -1 -5 6 -11 18 -13 20 -3 24 -12 21 -44 -4 -36 28 -17
53 31 30 59 20 77 -31 56z m12 -35 c-3 -5 -11 -10 -16 -10 -6 0 -7 5 -4 10 3
6 11 10 16 10 6 0 7 -4 4 -10z"/>
<path d="M2025 1748 c4 -19 -1 -26 -36 -42 -29 -13 -37 -22 -30 -29 8 -8 22
-4 50 11 36 20 41 21 55 6 18 -18 20 -7 6 30 -5 14 -18 30 -30 36 -19 10 -20
9 -15 -12z"/>
<path d="M549 1726 c-32 -16 -33 -61 -1 -91 39 -36 92 -13 92 42 0 44 -49 70
-91 49z m58 -34 c17 -15 18 -19 6 -30 -23 -22 -58 -11 -61 21 -3 21 1 27 16
27 10 0 28 -8 39 -18z"/>
<path d="M1853 1691 c-17 -9 -38 -30 -47 -48 -14 -30 -14 -33 8 -56 l23 -25
-49 -44 c-63 -54 -69 -60 -92 -93 -11 -14 -28 -36 -39 -48 -33 -38 -45 -61
-51 -97 -3 -20 -14 -74 -25 -120 -11 -46 -17 -88 -15 -92 3 -4 1 -8 -3 -8 -5
0 -9 -10 -10 -22 -1 -44 -15 -103 -24 -106 -5 -2 -7 -8 -4 -13 3 -5 1 -17 -4
-27 -10 -20 -5 -24 62 -51 53 -22 122 -55 127 -61 3 -4 14 -10 25 -14 24 -7
93 55 141 127 16 23 31 44 34 47 13 12 60 130 76 190 20 78 24 281 5 304 -9
11 -9 15 1 19 9 4 10 6 1 6 -7 1 -10 8 -7 16 4 8 2 15 -3 15 -5 0 -10 12 -11
27 -2 23 -26 77 -73 164 -14 25 -15 25 -46 10z"/>
<path d="M2055 1651 c-46 -17 -70 -37 -56 -46 15 -8 111 39 103 51 -5 7 -20 5
-47 -5z"/>
<path d="M488 1593 c-25 -28 -32 -63 -14 -63 9 0 16 -3 16 -8 0 -4 16 -12 35
-18 28 -9 37 -8 47 3 15 19 15 68 -2 87 -17 21 -63 20 -82 -1z m69 -32 c10
-15 9 -20 -2 -24 -23 -10 -55 4 -55 24 0 26 41 25 57 0z"/>
<path d="M2090 1547 c0 -6 -3 -8 -6 -4 -9 9 -65 -14 -58 -24 3 -5 16 -9 30 -9
14 0 27 -7 30 -15 8 -19 25 -9 22 12 -2 9 3 18 10 20 7 3 12 1 11 -4 -3 -20 2
-34 11 -28 12 7 14 54 3 56 -35 6 -53 5 -53 -4z"/>
<path d="M454 1478 c-9 -14 7 -23 49 -27 16 -2 -4 -21 -22 -21 -9 0 -26 -7
-37 -15 -19 -15 -19 -15 1 -27 11 -7 29 -13 40 -13 11 0 26 -4 33 -8 13 -9 32
-1 32 12 0 5 -15 12 -32 17 l-32 10 36 17 c47 22 58 47 19 47 -15 0 -31 3 -35
7 -10 10 -46 11 -52 1z"/>
<path d="M2050 1461 c0 -6 9 -19 20 -28 20 -17 20 -17 -1 -39 -18 -20 -19 -22
-3 -28 9 -4 24 0 33 7 9 7 28 18 44 25 15 6 27 18 27 26 0 14 -43 35 -70 34
-8 0 -23 3 -32 7 -11 4 -18 3 -18 -4z m80 -35 c0 -11 -19 -15 -25 -6 -3 5 1
10 9 10 9 0 16 -2 16 -4z"/>
<path d="M1470 1414 c0 -14 3 -14 15 -4 8 7 15 14 15 16 0 2 -7 4 -15 4 -8 0
-15 -7 -15 -16z"/>
<path d="M453 1333 c-52 -34 -9 -114 52 -99 33 9 51 51 34 83 -7 13 -17 23
-23 24 -6 0 -18 2 -26 4 -8 1 -25 -4 -37 -12z m63 -28 c9 -8 8 -15 -1 -28 -23
-32 -73 -11 -55 23 10 19 39 22 56 5z"/>
<path d="M2066 1333 c-5 -12 12 -18 39 -14 6 1 -1 -7 -14 -18 -24 -18 -37 -51
-22 -51 4 0 16 9 26 20 21 24 43 26 51 5 7 -17 34 -20 34 -4 0 6 -10 19 -22
30 l-23 18 23 1 c14 0 22 5 20 12 -6 18 -106 18 -112 1z"/>
<path d="M2098 1232 c-16 -2 -28 -8 -28 -13 0 -6 -4 -8 -8 -5 -12 7 -7 -53 4
-64 14 -14 91 -23 98 -12 5 8 -5 13 -56 27 -5 2 -12 3 -18 4 -5 0 -10 7 -10
15 0 16 27 29 34 17 3 -4 15 -7 28 -5 13 1 26 3 31 3 16 2 6 21 -11 21 -10 0
-22 4 -27 8 -6 4 -22 6 -37 4z"/>
<path d="M433 1195 c0 -8 9 -15 19 -15 11 0 16 -4 12 -11 -4 -7 1 -7 16 1 12
6 23 10 25 8 7 -7 -10 -25 -37 -39 -17 -9 -24 -19 -20 -26 6 -9 14 -9 32 2 14
8 37 20 52 27 33 15 34 47 1 50 -13 0 -29 1 -35 2 -7 1 -16 6 -20 11 -5 6 -8
4 -8 -4 0 -12 -3 -12 -12 -3 -16 16 -25 15 -25 -3z"/>
<path d="M2035 1087 c-15 -35 -2 -51 19 -22 10 14 18 15 49 7 24 -7 39 -7 43
-1 8 14 2 18 -51 34 l-46 14 -14 -32z"/>
<path d="M538 1085 c-15 -20 -22 -22 -48 -15 -38 11 -39 -4 -2 -24 23 -12 25
-15 10 -21 -21 -8 -14 -25 10 -25 28 1 96 37 83 44 -6 4 -21 4 -33 0 -21 -6
-21 -6 -5 10 17 17 24 56 10 56 -5 0 -16 -11 -25 -25z"/>
<path d="M2006 1015 c-3 -8 -1 -15 5 -15 16 0 78 -31 77 -38 -6 -49 16 -33 30
21 11 41 10 42 -16 26 -14 -9 -25 -8 -50 5 -38 20 -38 20 -46 1z"/>
<path d="M587 1008 c-2 -7 0 -21 5 -30 6 -13 5 -18 -6 -18 -7 0 -17 7 -20 16
-8 22 -25 8 -19 -16 6 -23 -12 -27 -21 -5 -9 25 -28 18 -21 -7 9 -28 35 -58
35 -40 0 7 3 11 8 10 4 -2 26 5 49 16 l41 18 -20 34 c-22 38 -24 39 -31 22z"/>
<path d="M1965 931 c-9 -19 -11 -32 -5 -36 6 -3 13 1 16 9 3 9 13 16 20 16 11
0 12 -4 4 -19 -13 -25 8 -42 22 -17 12 22 28 11 21 -14 -4 -16 -2 -19 11 -14
9 3 16 10 16 14 0 5 2 15 5 22 4 10 -11 24 -44 42 l-50 27 -16 -30z"/>
<path d="M595 885 c-44 -53 -39 -69 19 -61 22 3 49 5 59 5 23 1 22 31 -2 31
-21 0 -32 20 -26 50 6 32 -11 24 -50 -25z m35 -24 c0 -6 -4 -13 -10 -16 -5 -3
-10 1 -10 9 0 9 5 16 10 16 6 0 10 -4 10 -9z"/>
<path d="M1917 853 c-9 -8 12 -33 27 -33 20 0 45 -37 33 -49 -6 -6 -7 -14 -3
-18 7 -7 35 23 57 61 10 17 8 18 -15 12 -19 -5 -34 -1 -53 14 -27 21 -36 24
-46 13z"/>
<path d="M673 789 c-18 -16 -33 -25 -33 -20 0 6 -7 11 -16 11 -14 0 -13 -5 5
-32 20 -33 51 -50 51 -29 0 6 -5 11 -12 11 -7 0 5 17 25 38 21 21 34 41 31 45
-12 11 -17 9 -51 -24z"/>
<path d="M1865 790 c-3 -5 -3 -10 2 -10 4 0 25 -16 47 -35 21 -19 43 -32 48
-29 6 4 5 10 -3 15 -8 5 -10 9 -5 9 5 0 -4 10 -20 22 -16 13 -30 26 -32 30 -5
11 -30 10 -37 -2z"/>
<path d="M671 2171 c-11 -7 -10 -15 9 -41 l23 -32 12 23 c21 38 -9 72 -44 50z"/>
<path d="M1924 2119 c-8 -17 -11 -28 -5 -25 6 4 11 2 11 -3 0 -6 9 -11 20 -11
11 0 20 6 20 14 0 8 6 16 13 19 9 3 9 7 -2 20 -20 25 -39 21 -57 -14z"/>
<path d="M421 1916 c-27 -32 21 -70 57 -47 19 11 17 19 -9 42 -26 23 -33 23
-48 5z"/>
<path d="M237 1423 c-3 -5 -2 -15 2 -22 7 -10 10 -10 16 -1 4 6 3 16 -3 22 -5
5 -12 6 -15 1z"/>
<path d="M284 1416 c-8 -22 3 -33 18 -18 9 9 9 15 0 24 -9 9 -13 7 -18 -6z"/>
<path d="M2210 786 c0 -7 9 -16 20 -19 20 -5 24 12 5 25 -15 12 -25 9 -25 -6z"/>
<path d="M410 770 c-8 -5 -16 -18 -16 -30 -2 -25 37 -28 60 -5 30 30 -6 59
-44 35z"/>
<path d="M1158 562 c-28 -6 -30 -30 -2 -24 32 6 32 -19 -1 -52 -39 -39 -33
-58 18 -54 47 3 57 21 14 26 l-28 3 26 21 c18 14 25 28 23 44 -2 14 -7 24 -12
23 -5 0 -12 3 -15 8 -3 5 -13 7 -23 5z"/>
<path d="M1254 559 c-3 -5 -10 -6 -16 -3 -7 4 -8 2 -4 -4 4 -7 2 -12 -3 -12
-6 0 -11 -17 -11 -38 0 -40 23 -72 51 -72 35 0 60 71 39 110 -11 20 -47 33
-56 19z m32 -31 c5 -7 3 -8 -7 -3 -11 7 -12 6 -2 -6 16 -20 10 -53 -10 -57
-12 -3 -17 4 -17 21 0 48 19 72 36 45z"/>
<path d="M1344 556 c-16 -12 -17 -16 -3 -37 8 -13 14 -36 13 -51 -3 -29 10
-46 21 -28 4 6 7 32 9 59 2 56 -12 77 -40 57z"/>
<path d="M1417 555 c-13 -9 -17 -20 -12 -34 3 -11 2 -28 -4 -38 -14 -27 5 -53
39 -53 16 0 32 6 37 13 12 20 13 41 1 48 -9 6 -9 11 0 22 10 11 8 19 -8 38
-13 17 -19 20 -20 9 0 -10 -3 -11 -8 -3 -5 8 -12 8 -25 -2z m40 -28 c0 -8 -6
-14 -14 -14 -7 0 -13 6 -13 14 0 7 6 13 13 13 8 0 14 -6 14 -13z m-2 -47 c9
-15 -3 -30 -20 -24 -7 3 -11 12 -8 20 6 16 19 18 28 4z"/>
<path d="M545 559 c-10 -15 1 -23 20 -15 9 3 13 10 10 16 -8 13 -22 13 -30 -1z"/>
</g>
</svg>
